<svg width="290" height="492" viewBox="0 0 290 492" fill="none" xmlns="http://www.w3.org/2000/svg">
<path d="M97.1281 246.104L281.184 62.04C286.252 56.984 289.04 50.224 289.04 43.016C289.04 35.804 286.252 29.048 281.184 23.984L265.056 7.864C259.996 2.792 253.232 0 246.024 0C238.816 0 232.06 2.792 226.996 7.864L7.84811 227.008C2.76411 232.088 -0.0198928 238.876 0.000107165 246.092C-0.0198928 253.34 2.76011 260.12 7.84811 265.204L226.792 484.136C231.856 489.208 238.612 492 245.824 492C253.032 492 259.788 489.208 264.856 484.136L280.98 468.016C291.472 457.524 291.472 440.444 280.98 429.956L97.1281 246.104Z" fill="white"/>
</svg>
