<svg width="349" height="349" viewBox="0 0 349 349" fill="none" xmlns="http://www.w3.org/2000/svg">
<path d="M174.5 0C78.1324 0 0 78.1324 0 174.5C0 270.868 78.1324 349 174.5 349C270.868 349 349 270.868 349 174.5C349 78.1324 270.868 0 174.5 0ZM185.406 141.781C191.426 141.781 196.312 146.667 196.312 152.688C196.312 158.708 191.426 163.594 185.406 163.594H131.791C131.289 167.149 130.875 170.77 130.875 174.5C130.875 178.23 131.289 181.851 131.791 185.406H174.5C180.52 185.406 185.406 190.292 185.406 196.312C185.406 202.333 180.52 207.219 174.5 207.219H138.466C147.911 226.676 165.317 239.938 185.406 239.938C194.916 239.938 203.86 237.124 211.996 231.583C216.947 228.224 223.753 229.468 227.134 234.441C230.515 239.414 229.249 246.198 224.254 249.6C212.606 257.54 199.17 261.75 185.406 261.75C153.451 261.75 126.098 239.13 114.734 207.219H98.1562C92.136 207.219 87.25 202.333 87.25 196.312C87.25 190.292 92.136 185.406 98.1562 185.406H110.022C109.63 181.785 109.062 178.23 109.062 174.5C109.062 170.77 109.63 167.215 110.022 163.594H98.1562C92.136 163.594 87.25 158.708 87.25 152.688C87.25 146.667 92.136 141.781 98.1562 141.781H114.734C126.098 109.87 153.451 87.25 185.406 87.25C199.17 87.25 212.606 91.4598 224.254 99.3996C229.249 102.802 230.515 109.586 227.134 114.559C223.753 119.576 216.925 120.798 211.996 117.417C203.86 111.876 194.916 109.062 185.406 109.062C165.317 109.062 147.911 122.324 138.466 141.781H185.406Z" fill="#11BC7A"/>
</svg>
